#N canvas 783 322 1920 956 12;
#X obj 402 199 netreceive -u -b;
#X obj 402 231 oscparse;
#X msg 406 154 listen 9999;
#X obj 401 264 list trim;
#X floatatom 41 550 5 0 0 0 - - - 0;
#X floatatom 243 542 5 0 0 0 - - - 0;
#X floatatom 138 544 5 0 0 0 - - - 0;
#X obj 755 637 osc~;
#X obj 759 707 dac~;
#X obj 17 12 tgl 19 0 empty empty empty 0 -10 0 12 #fcfcfc #000000 #000000 0 1;
#X msg 17 36 \; pd dsp \$1;
#X floatatom 404 526 5 0 0 0 - - - 0;
#X floatatom 565 526 5 0 0 0 - - - 0;
#X floatatom 479 525 5 0 0 0 - - - 0;
#X obj 59 268 print;
#X obj 402 381 route gyro;
#X obj 403 429 route x;
#X obj 480 430 route y;
#X obj 565 432 route z;
#X obj 42 457 route x;
#X obj 141 459 route y;
#X obj 241 461 route z;
#X obj 43 390 route acc;
#X floatatom 749 519 5 0 0 0 - - - 0;
#X floatatom 910 519 7 0 0 0 - - - 0;
#X floatatom 824 518 7 0 0 0 - - - 0;
#X obj 748 422 route x;
#X obj 825 423 route y;
#X obj 910 425 route z;
#X obj 747 374 route mag;
#X obj 751 553 * -5;
#X obj 751 593 + 100;
#X connect 0 0 1 0;
#X connect 1 0 3 0;
#X connect 2 0 0 0;
#X connect 3 0 15 0;
#X connect 3 0 14 0;
#X connect 3 0 22 0;
#X connect 3 0 29 0;
#X connect 7 0 8 0;
#X connect 7 0 8 1;
#X connect 9 0 10 0;
#X connect 15 0 16 0;
#X connect 15 0 17 0;
#X connect 15 0 18 0;
#X connect 16 0 11 0;
#X connect 17 0 13 0;
#X connect 18 0 12 0;
#X connect 19 0 4 0;
#X connect 20 0 6 0;
#X connect 21 0 5 0;
#X connect 22 0 19 0;
#X connect 22 0 20 0;
#X connect 22 0 21 0;
#X connect 23 0 30 0;
#X connect 26 0 23 0;
#X connect 27 0 25 0;
#X connect 28 0 24 0;
#X connect 29 0 26 0;
#X connect 29 0 27 0;
#X connect 29 0 28 0;
#X connect 30 0 31 0;
#X connect 31 0 7 0;
