#N canvas -10 2 1916 942 12;
#X floatatom 49 348 5 0 0 0 - - - 0;
#X floatatom 251 340 5 0 0 0 - - - 0;
#X floatatom 146 342 5 0 0 0 - - - 0;
#X obj 763 435 osc~;
#X obj 767 505 dac~;
#X obj 17 12 tgl 19 0 empty empty empty 0 -10 0 12 #fcfcfc #000000 #000000 0 1;
#X msg 17 36 \; pd dsp \$1;
#X floatatom 412 324 5 0 0 0 - - - 0;
#X floatatom 573 324 5 0 0 0 - - - 0;
#X floatatom 487 323 5 0 0 0 - - - 0;
#X floatatom 757 317 5 0 0 0 - - - 0;
#X floatatom 918 317 7 0 0 0 - - - 0;
#X floatatom 832 316 7 0 0 0 - - - 0;
#X obj 759 351 * -5;
#X obj 759 391 + 100;
#X obj 404 58 tgl 19 0 empty empty empty 0 -10 0 12 #fcfcfc #000000 #000000 0 1;
#X obj 404 94 sensor-receive;
#X connect 3 0 4 0;
#X connect 3 0 4 1;
#X connect 5 0 6 0;
#X connect 10 0 13 0;
#X connect 13 0 14 0;
#X connect 14 0 3 0;
#X connect 15 0 16 0;
#X connect 16 0 0 0;
#X connect 16 1 2 0;
#X connect 16 2 1 0;
#X connect 16 3 7 0;
#X connect 16 4 9 0;
#X connect 16 5 8 0;
#X connect 16 6 10 0;
#X connect 16 7 12 0;
#X connect 16 8 11 0;
