#N canvas -92 -39 1920 956 12;
#X obj 402 223 oscparse;
#X obj 402 261 list trim;
#X obj 403 378 route gyro;
#X obj 403 426 route x;
#X obj 481 425 route y;
#X obj 566 425 route z;
#X obj 43 454 route x;
#X obj 142 452 route y;
#X obj 242 450 route z;
#X obj 44 387 route acc;
#X obj 748 433 route x;
#X obj 826 432 route y;
#X obj 911 432 route z;
#X obj 748 389 route mag;
#X obj 43 492 outlet;
#X obj 142 489 outlet;
#X obj 242 488 outlet;
#X obj 403 463 outlet;
#X obj 481 463 outlet;
#X obj 566 463 outlet;
#X obj 748 467 outlet;
#X obj 826 466 outlet;
#X obj 911 464 outlet;
#X obj 463 30 inlet;
#X msg 567 140 listen 0;
#X obj 299 102 expr if(\$1 == 0 \, 9999 \, \$1);
#X obj 463 55 sel 1;
#X text 159 102 default port 9999;
#X obj 403 184 netreceive -u -b;
#X msg 299 139 listen \$1 239.255.0.1;
#X obj 1055 389 route encA;
#X obj 1258 390 route encB;
#X obj 1052 454 outlet;
#X obj 1264 460 outlet;
#X obj 1445 379 route reset;
#X msg 1436 418 0;
#X connect 0 0 1 0;
#X connect 1 0 2 0;
#X connect 1 0 9 0;
#X connect 1 0 13 0;
#X connect 1 0 30 0;
#X connect 1 0 31 0;
#X connect 1 0 34 0;
#X connect 2 0 3 0;
#X connect 2 0 4 0;
#X connect 2 0 5 0;
#X connect 3 0 17 0;
#X connect 4 0 18 0;
#X connect 5 0 19 0;
#X connect 6 0 14 0;
#X connect 7 0 15 0;
#X connect 8 0 16 0;
#X connect 9 0 6 0;
#X connect 9 0 7 0;
#X connect 9 0 8 0;
#X connect 10 0 20 0;
#X connect 11 0 21 0;
#X connect 12 0 22 0;
#X connect 13 0 10 0;
#X connect 13 0 11 0;
#X connect 13 0 12 0;
#X connect 23 0 26 0;
#X connect 24 0 28 0;
#X connect 25 0 29 0;
#X connect 26 0 25 0;
#X connect 26 1 24 0;
#X connect 28 0 0 0;
#X connect 29 0 28 0;
#X connect 30 0 32 0;
#X connect 31 0 33 0;
#X connect 34 0 35 0;
#X connect 35 0 32 0;
#X connect 35 0 33 0;
