#N canvas 1224 245 1920 956 12;
#X obj 402 185 netreceive -u -b;
#X obj 402 223 oscparse;
#X obj 402 261 list trim;
#X obj 403 378 route gyro;
#X obj 403 426 route x;
#X obj 481 425 route y;
#X obj 566 425 route z;
#X obj 43 454 route x;
#X obj 142 452 route y;
#X obj 242 450 route z;
#X obj 44 387 route acc;
#X obj 748 433 route x;
#X obj 826 432 route y;
#X obj 911 432 route z;
#X obj 748 389 route mag;
#X obj 43 492 outlet;
#X obj 142 489 outlet;
#X obj 242 488 outlet;
#X obj 403 463 outlet;
#X obj 481 463 outlet;
#X obj 566 463 outlet;
#X obj 748 467 outlet;
#X obj 826 466 outlet;
#X obj 911 464 outlet;
#X obj 463 30 inlet;
#X msg 567 140 listen 0;
#X obj 299 102 expr if(\$1 == 0 \, 9999 \, \$1);
#X obj 463 55 sel 1;
#X msg 299 139 listen \$1;
#X text 159 102 default port 9999;
#X connect 0 0 1 0;
#X connect 1 0 2 0;
#X connect 2 0 3 0;
#X connect 2 0 10 0;
#X connect 2 0 14 0;
#X connect 3 0 4 0;
#X connect 3 0 5 0;
#X connect 3 0 6 0;
#X connect 4 0 18 0;
#X connect 5 0 19 0;
#X connect 6 0 20 0;
#X connect 7 0 15 0;
#X connect 8 0 16 0;
#X connect 9 0 17 0;
#X connect 10 0 7 0;
#X connect 10 0 8 0;
#X connect 10 0 9 0;
#X connect 11 0 21 0;
#X connect 12 0 22 0;
#X connect 13 0 23 0;
#X connect 14 0 11 0;
#X connect 14 0 12 0;
#X connect 14 0 13 0;
#X connect 24 0 27 0;
#X connect 25 0 0 0;
#X connect 26 0 28 0;
#X connect 27 0 26 0;
#X connect 27 1 25 0;
#X connect 28 0 0 0;
